<?xml version="1.0" encoding="UTF-8"?>
<svg id="Calque_2" data-name="Calque 2" xmlns="http://www.w3.org/2000/svg" viewBox="0 0 486.33 432.26">
  <defs>
    <style>
      .cls-1 {
        fill: #253784;
      }

      .cls-1, .cls-2, .cls-3, .cls-4 {
        stroke-width: 0px;
      }

      .cls-2 {
        fill: #e50b42;
      }

      .cls-3 {
        fill: #931a6b;
      }

      .cls-4 {
        fill: #72c7d8;
      }
    </style>
  </defs>
  <g id="logo">
    <g>
      <polygon class="cls-2" points="282.86 9.28 279.36 9.77 279.98 7.25 282.86 9.28"/>
      <polygon class="cls-2" points="280.78 3.97 279.98 7.25 278.97 6.55 280.78 3.97"/>
      <g>
        <rect class="cls-2" x="135.83" y="301.87" width="8.87" height="193.33" transform="translate(-276.58 467.46) rotate(-80)"/>
        <g>
          <polygon class="cls-2" points="32.47 107.44 10.46 232.27 9.07 240.18 9.07 240.19 8.29 244.59 7.26 250.44 2.32 249.57 2.14 248.87 0 240.51 .19 239.41 .19 239.38 23.74 105.9 32.47 107.44"/>
          <polygon class="cls-2" points="290.03 3.47 288.82 8.44 287.77 12.72 221.83 281.36 213.22 279.24 279.36 9.77 282.86 9.28 279.98 7.25 280.78 3.97 281.55 .84 282.77 1.14 288.84 2.64 290.03 3.47"/>
          <polygon class="cls-2" points="219.37 282.27 211.05 285.36 117.25 32.64 116.87 31.62 114.09 24.13 120.09 23.28 123.07 22.86 123.54 24.13 126.23 31.37 127.27 34.17 219.37 282.27"/>
          <polygon class="cls-2" points="295.73 7.46 288.82 8.44 282.86 9.28 279.98 7.25 280.78 3.97 278.97 6.55 279.98 7.25 279.36 9.77 143.27 28.97 126.23 31.37 119.64 32.3 117.25 32.64 116.87 31.62 114.09 24.13 120.09 23.28 123.07 22.86 283.41 .24 285.08 0 288.84 2.64 290.03 3.47 295.73 7.46"/>
          <polygon class="cls-2" points="411.64 94.83 409.53 103.45 127.27 34.17 119.64 32.3 116.87 31.62 114.09 24.13 120.09 23.28 123.54 24.13 143.27 28.97 411.64 94.83"/>
          <rect class="cls-2" x="80.59" y="110" width="214.36" height="8.87" transform="translate(-31.73 127.64) rotate(-34.8)"/>
          <rect class="cls-2" x="-18.22" y="215.03" width="361.46" height="8.87" transform="translate(-110.48 226.58) rotate(-54.97)"/>
          <rect class="cls-2" x="117.6" y="64.9" width="8.87" height="273.13" transform="translate(-105.88 141.98) rotate(-44.17)"/>
          <polygon class="cls-2" points="43.66 375.36 35.07 377.56 2.32 249.57 2.14 248.87 0 240.51 .19 239.41 .19 239.38 .25 239.37 8.33 237.3 9.07 240.18 9.07 240.19 9.91 243.47 43.66 375.36"/>
          <polygon class="cls-2" points="97.64 182.48 9.91 243.47 8.29 244.59 2.14 248.87 0 240.51 .19 239.41 .25 239.37 10.46 232.27 92.57 175.2 97.64 182.48"/>
          <rect class="cls-2" x="181.39" y="188.09" width="267.8" height="8.87" transform="translate(-39.61 295.08) rotate(-47.53)"/>
          <rect class="cls-2" x="35.57" y="334.77" width="193.33" height="8.87" transform="translate(-134.02 90.89) rotate(-25.7)"/>
          <rect class="cls-2" x="218.15" y="298.19" width="8.87" height="111.65"/>
          <rect class="cls-2" x="142.97" y="239.78" width="350.22" height="8.87" transform="translate(-49.06 405.55) rotate(-61.24)"/>
          <polygon class="cls-2" points="469.11 299.94 223.43 299.94 223.43 291.07 466.4 291.07 469.11 299.94"/>
          <polygon class="cls-2" points="469.11 299.94 459.83 299.94 457.12 291.07 398.82 100.21 407.3 97.62 466.4 291.07 469.11 299.94"/>
          <polygon class="cls-2" points="397.09 78.51 392 85.78 287.77 12.72 282.86 9.28 279.98 7.25 280.78 3.97 282.77 1.14 283.41 .24 285.08 0 288.84 2.64 290.03 3.47 295.73 7.46 397.09 78.51"/>
          <circle class="cls-2" cx="100.96" cy="170.19" r="24.4"/>
          <circle class="cls-2" cx="267.48" cy="56.62" r="24.4"/>
          <circle class="cls-2" cx="399.58" cy="87.53" r="24.4"/>
          <circle class="cls-2" cx="215.86" cy="295.51" r="24.4"/>
        </g>
        <circle class="cls-2" cx="225.76" cy="407.86" r="24.4"/>
        <circle class="cls-2" cx="46.47" cy="374.14" r="24.4"/>
      </g>
      <g>
        <g>
          <rect class="cls-2" x="360.42" y="332.95" width="76.81" height="17.32"/>
          <rect class="cls-2" x="390.16" y="332.95" width="17.32" height="75.94"/>
        </g>
        <g>
          <rect class="cls-2" x="279.68" y="332.94" width="76.81" height="17.32"/>
          <rect class="cls-2" x="309.42" y="332.94" width="17.32" height="75.94"/>
          <rect class="cls-2" x="279.68" y="392.53" width="76.81" height="17.31"/>
        </g>
        <g>
          <rect class="cls-2" x="451.85" y="354.88" width="17.32" height="51.64"/>
          <rect class="cls-2" x="434.69" y="372.04" width="51.64" height="17.32"/>
        </g>
      </g>
    </g>
    <g>
      <polygon class="cls-1" points="282.86 9.28 279.36 9.77 279.98 7.25 282.86 9.28"/>
      <polygon class="cls-4" points="280.78 3.97 279.98 7.25 278.97 6.55 280.78 3.97"/>
      <g>
        <rect class="cls-1" x="135.83" y="301.87" width="8.87" height="193.33" transform="translate(-276.58 467.46) rotate(-80)"/>
        <g>
          <polygon class="cls-4" points="32.47 107.44 10.46 232.27 9.07 240.18 9.07 240.19 8.29 244.59 7.26 250.44 2.32 249.57 2.14 248.87 0 240.51 .19 239.41 .19 239.38 23.74 105.9 32.47 107.44"/>
          <polygon class="cls-1" points="290.03 3.47 288.82 8.44 287.77 12.72 221.83 281.36 213.22 279.24 279.36 9.77 282.86 9.28 279.98 7.25 280.78 3.97 281.55 .84 282.77 1.14 288.84 2.64 290.03 3.47"/>
          <polygon class="cls-1" points="219.37 282.27 211.05 285.36 117.25 32.64 116.87 31.62 114.09 24.13 120.09 23.28 123.07 22.86 123.54 24.13 126.23 31.37 127.27 34.17 219.37 282.27"/>
          <polygon class="cls-4" points="295.73 7.46 288.82 8.44 282.86 9.28 279.98 7.25 280.78 3.97 278.97 6.55 279.98 7.25 279.36 9.77 143.27 28.97 126.23 31.37 119.64 32.3 117.25 32.64 116.87 31.62 114.09 24.13 120.09 23.28 123.07 22.86 283.41 .24 285.08 0 288.84 2.64 290.03 3.47 295.73 7.46"/>
          <polygon class="cls-4" points="411.64 94.83 409.53 103.45 127.27 34.17 119.64 32.3 116.87 31.62 114.09 24.13 120.09 23.28 123.54 24.13 143.27 28.97 411.64 94.83"/>
          <rect class="cls-1" x="80.59" y="110" width="214.36" height="8.87" transform="translate(-31.73 127.64) rotate(-34.8)"/>
          <rect class="cls-1" x="-18.22" y="215.03" width="361.46" height="8.87" transform="translate(-110.48 226.58) rotate(-54.97)"/>
          <rect class="cls-4" x="117.6" y="64.9" width="8.87" height="273.13" transform="translate(-105.88 141.98) rotate(-44.17)"/>
          <polygon class="cls-1" points="43.66 375.36 35.07 377.56 2.32 249.57 2.14 248.87 0 240.51 .19 239.41 .19 239.38 .25 239.37 8.33 237.3 9.07 240.18 9.07 240.19 9.91 243.47 43.66 375.36"/>
          <polygon class="cls-1" points="97.64 182.48 9.91 243.47 8.29 244.59 2.14 248.87 0 240.51 .19 239.41 .25 239.37 10.46 232.27 92.57 175.2 97.64 182.48"/>
          <rect class="cls-4" x="181.39" y="188.09" width="267.8" height="8.87" transform="translate(-39.61 295.08) rotate(-47.53)"/>
          <rect class="cls-4" x="35.57" y="334.77" width="193.33" height="8.87" transform="translate(-134.02 90.89) rotate(-25.7)"/>
          <rect class="cls-1" x="218.15" y="298.19" width="8.87" height="111.65"/>
          <rect class="cls-3" x="142.97" y="239.78" width="350.22" height="8.87" transform="translate(-49.06 405.55) rotate(-61.24)"/>
          <polygon class="cls-1" points="469.11 299.94 223.43 299.94 223.43 291.07 466.4 291.07 469.11 299.94"/>
          <polygon class="cls-1" points="469.11 299.94 459.83 299.94 457.12 291.07 398.82 100.21 407.3 97.62 466.4 291.07 469.11 299.94"/>
          <polygon class="cls-1" points="397.09 78.51 392 85.78 287.77 12.72 282.86 9.28 279.98 7.25 280.78 3.97 282.77 1.14 283.41 .24 285.08 0 288.84 2.64 290.03 3.47 295.73 7.46 397.09 78.51"/>
          <circle class="cls-1" cx="100.96" cy="170.19" r="24.4"/>
          <circle class="cls-1" cx="267.48" cy="56.62" r="24.4"/>
          <circle class="cls-1" cx="399.58" cy="87.53" r="24.4"/>
          <circle class="cls-4" cx="215.86" cy="295.51" r="24.4"/>
        </g>
        <circle class="cls-1" cx="225.76" cy="407.86" r="24.4"/>
        <circle class="cls-1" cx="46.47" cy="374.14" r="24.4"/>
      </g>
      <g>
        <g>
          <rect class="cls-1" x="360.42" y="332.95" width="76.81" height="17.32"/>
          <rect class="cls-1" x="390.16" y="332.95" width="17.32" height="75.94"/>
        </g>
        <g>
          <rect class="cls-1" x="279.68" y="332.94" width="76.81" height="17.32"/>
          <rect class="cls-1" x="309.42" y="332.94" width="17.32" height="75.94"/>
          <rect class="cls-1" x="279.68" y="392.53" width="76.81" height="17.31"/>
        </g>
        <g>
          <rect class="cls-4" x="451.85" y="354.88" width="17.32" height="51.64"/>
          <rect class="cls-4" x="434.69" y="372.04" width="51.64" height="17.32"/>
        </g>
      </g>
    </g>
  </g>
</svg>